<?xml version="1.0" standalone="no"?>
<!DOCTYPE svg PUBLIC "-//W3C//DTD SVG 20010904//EN"
 "http://www.w3.org/TR/2001/REC-SVG-20010904/DTD/svg10.dtd">
<svg version="1.0" xmlns="http://www.w3.org/2000/svg"
 width="400.000000pt" height="400.000000pt" viewBox="0 0 400.000000 400.000000"
 preserveAspectRatio="xMidYMid meet">
<metadata>
Created by potrace 1.14, written by Peter Selinger 2001-2017
</metadata>
<g transform="translate(0.000000,400.000000) scale(0.100000,-0.100000)"
fill="#000000" stroke="none">
<path d="M2277 3839 c-22 -3 -72 -5 -113 -4 -41 1 -74 -1 -74 -4 0 -3 -14 -21
-30 -39 -22 -23 -41 -34 -71 -37 -23 -3 -51 -12 -62 -20 -12 -8 -34 -15 -49
-15 -16 0 -28 -3 -28 -7 0 -5 -29 -38 -63 -74 -71 -76 -206 -224 -234 -255
-23 -26 -184 -203 -200 -220 -9 -9 -13 -51 -13 -138 l0 -125 54 -55 53 -55
104 -3 104 -3 1 -33 c0 -18 -17 -72 -38 -120 -21 -48 -42 -96 -47 -107 -27
-61 -103 -248 -115 -281 -28 -80 -186 -393 -246 -488 -34 -54 -99 -173 -146
-265 -67 -135 -90 -170 -116 -186 -18 -10 -54 -35 -80 -54 -129 -98 -136 -102
-223 -117 -82 -14 -86 -16 -132 -65 -64 -68 -63 -67 -59 -145 3 -38 5 -83 5
-101 1 -25 13 -45 56 -88 72 -74 122 -90 260 -82 55 4 111 9 125 11 14 3 61
10 104 16 43 5 93 19 110 29 98 60 169 90 236 98 19 3 46 11 60 18 82 44 99
49 190 53 94 4 95 4 144 45 l49 41 -7 106 c-5 91 -14 174 -19 176 -1 0 -21 15
-43 32 -23 18 -47 32 -53 32 -8 0 -10 12 -5 38 4 20 8 45 10 54 11 64 262 188
514 253 65 17 77 15 156 -20 61 -28 93 -64 135 -153 18 -37 53 -103 78 -147
26 -44 70 -128 99 -188 45 -89 53 -116 53 -161 0 -30 -5 -65 -12 -78 -16 -30
-75 -87 -174 -168 -44 -36 -91 -75 -104 -87 -14 -12 -48 -41 -77 -65 l-53 -43
6 -80 c3 -44 7 -93 8 -110 2 -16 3 -39 4 -50 1 -11 19 -40 41 -65 22 -24 40
-47 40 -51 0 -16 69 -29 150 -29 l88 0 98 80 c55 44 117 89 139 100 22 10 113
52 203 94 183 84 206 101 343 237 123 122 132 144 127 305 l-3 119 -51 100
c-28 55 -72 139 -98 188 -56 102 -74 168 -91 332 -17 159 -38 217 -173 485
-189 375 -361 799 -428 1055 -42 162 -102 354 -114 365 -3 3 -14 22 -24 43
-11 21 -53 72 -94 113 -81 81 -81 81 -185 63z"/>
</g>
</svg>
