<svg width="145" height="145" viewBox="0 0 145 145" fill="none" xmlns="http://www.w3.org/2000/svg">
<g clip-path="url(#clip0_180_1633)">
<path d="M3.57653 144.146V99.4215L10.2787 90.3832C7.08875 86.4924 3.81014 82.4565 2.3682 77.1318C0.40264 69.8979 2.54542 61.5363 7.95069 55.3013C8.03125 55.2126 8.11181 55.116 8.19236 55.0274C5.44542 47.4229 4.39014 39.1176 5.14736 30.9251C5.56625 26.3899 8.04736 22.4265 11.9624 20.0421C13.8393 18.8982 15.8935 18.2135 17.996 17.996C18.2135 15.8935 18.8982 13.8393 20.0421 11.9543C22.4185 8.04736 26.3818 5.55819 30.9251 5.13931C39.1176 4.38208 47.4149 5.43736 55.0274 8.1843C55.116 8.10375 55.2126 8.02319 55.3012 7.94264C61.5362 2.53736 69.906 0.394583 77.1318 2.36014C82.4565 3.80208 86.4923 7.08069 90.3832 10.2707L99.4215 3.56847H144.146L140.465 9.95653C135.768 18.1249 127.817 24.1021 118.674 26.3576C109.523 28.6132 99.7115 27.0182 91.7526 21.9754C91.2451 21.6532 90.7457 21.3229 90.2543 20.9765L85.7593 24.3115C83.0768 26.3012 80.2412 28.0251 77.2849 29.4671C79.1376 36.556 77.6151 43.8946 72.814 49.0018C70.6229 51.3379 67.7712 53.0215 64.5732 53.8835C60.336 55.0274 56.2518 54.6004 52.7074 52.6671C54.6407 56.2115 55.0596 60.3038 53.9237 64.541C53.0618 67.739 51.3701 70.5907 49.0421 72.7818C43.9349 77.5749 36.5962 79.0974 29.5074 77.2526C28.0574 80.209 26.3415 83.0446 24.3518 85.7271L21.0168 90.2221C21.3551 90.7135 21.6935 91.2129 22.0157 91.7204C27.0585 99.6793 28.6535 109.491 26.3979 118.642C24.1424 127.793 18.1571 135.736 9.99681 140.432L3.60875 144.114L3.57653 144.146ZM12.1074 102.241V127.858C14.9671 124.66 17.0776 120.769 18.0926 116.636C19.6554 110.313 18.6968 103.312 15.5471 97.601L12.1074 102.241ZM12.3732 63.7596C10.3593 67.3201 9.65847 71.4285 10.601 74.9004C11.4065 77.881 13.3238 80.5715 15.5229 83.3185L17.4804 80.6843C19.1076 78.4851 20.5254 76.1651 21.7257 73.7565C18.1329 71.3399 14.9751 67.9485 12.3732 63.7676V63.7596ZM32.6812 69.2132C36.3949 69.914 40.3179 69.2857 43.1857 66.5951C44.3457 65.5076 45.2318 64.0013 45.6749 62.3499C46.2629 60.1507 46.0615 58.1932 45.0707 56.5337C43.8624 54.5199 41.494 52.941 38.7149 52.2965C37.6032 52.0387 36.419 51.9099 35.1462 51.9099C35.2349 57.7662 34.4051 63.6146 32.6812 69.2132ZM18.4713 57.2588C19.9857 60.1265 22.0801 63.1393 24.8915 65.4754C25.9871 61.5362 26.5751 57.4601 26.6235 53.376C24.0618 54.1815 21.1537 55.406 18.4713 57.2588ZM19.454 26.4624C18.3907 26.4624 17.3354 26.7524 16.3849 27.3324C14.806 28.291 13.799 29.886 13.6379 31.7065C13.0901 37.6112 13.654 43.5724 15.2571 49.179C18.3988 47.2618 21.9835 45.7474 25.9226 44.7001C25.3587 41.494 24.4565 38.3282 23.2079 35.2671L19.6232 26.4704C19.5668 26.4704 19.5024 26.4704 19.446 26.4704L19.454 26.4624ZM35.1221 43.379C37.0474 43.379 38.876 43.5804 40.6321 43.9912C42.6057 44.4504 44.4585 45.1754 46.126 46.134C45.1674 44.4665 44.4343 42.6057 43.9751 40.6401C43.516 38.6585 43.3146 36.5721 43.379 34.3568C39.5285 33.6962 35.7262 32.6168 32.0449 31.1185L30.4821 30.4821L31.1185 32.0449C32.6168 35.7262 33.6962 39.5285 34.3568 43.3871C34.6146 43.3871 34.8724 43.379 35.1301 43.379H35.1221ZM51.8937 35.1462C51.8937 36.419 52.0226 37.6032 52.2804 38.7068C52.9249 41.4779 54.5037 43.8543 56.5176 45.0626C58.1771 46.0615 60.1346 46.2629 62.3337 45.6668C63.9771 45.2237 65.4835 44.3376 66.579 43.1776C69.2696 40.3099 69.8899 36.3787 69.1971 32.6732C63.5985 34.3971 57.7662 35.2349 51.8937 35.1382V35.1462ZM57.2507 18.4712C55.3899 21.1537 54.1654 24.0618 53.3679 26.6235C57.4601 26.5751 61.5282 25.9871 65.4674 24.8915C63.1232 22.0801 60.1185 19.9857 57.2507 18.4712ZM26.4624 19.6393L35.259 23.224C38.3201 24.4726 41.486 25.3749 44.6921 25.9307C45.7393 21.9915 47.2537 18.4068 49.171 15.2651C43.5643 13.654 37.6032 13.0982 31.6985 13.6379C29.8779 13.8071 28.2829 14.806 27.3243 16.3849C26.7121 17.3837 26.4221 18.5115 26.4543 19.6312L26.4624 19.6393ZM63.7515 12.3732C67.9324 14.9671 71.3237 18.1329 73.7404 21.7257C76.1571 20.5254 78.4771 19.1076 80.6682 17.4804L83.3024 15.5229C80.5554 13.3237 77.8649 11.4065 74.8843 10.601C71.4124 9.65847 67.304 10.3593 63.7435 12.3732H63.7515ZM97.5929 15.5471C103.304 18.6968 110.305 19.6554 116.628 18.0926C120.761 17.0696 124.652 14.9671 127.858 12.1074H102.241L97.601 15.5471H97.5929Z" fill="#60492C"/>
<path d="M3.57653 144.992C3.43153 144.992 3.27848 144.952 3.14959 144.879C2.88375 144.726 2.72264 144.444 2.72264 144.138V99.4136C2.72264 99.2283 2.77903 99.0511 2.89181 98.9061L9.19931 90.3994C6.23486 86.7825 2.98847 82.6661 1.54653 77.3494C-0.483469 69.8819 1.69959 61.2705 7.2257 54.8341C4.55931 47.2458 3.55236 38.9646 4.30153 30.8446C4.74459 26.0355 7.37875 21.8305 11.5193 19.3171C13.2996 18.2377 15.2168 17.5369 17.2307 17.2388C17.5287 15.2249 18.2296 13.3077 19.309 11.5194C21.8304 7.37879 26.0274 4.74462 30.8365 4.30157C38.9565 3.5524 47.2376 4.55934 54.826 7.22574C61.2623 1.69962 69.8818 -0.475382 77.3412 1.54656C82.666 2.98851 86.7743 6.2349 90.3912 9.19935L98.8979 2.89184C99.0429 2.77907 99.2201 2.72268 99.4054 2.72268H144.13C144.436 2.72268 144.718 2.88379 144.871 3.14962C145.024 3.41545 145.024 3.73768 144.871 4.00351L141.19 10.3916C136.372 18.7613 128.236 24.8835 118.86 27.1955C109.491 29.5074 99.4296 27.8721 91.2773 22.7085C90.931 22.491 90.5926 22.2655 90.2543 22.0399L86.2507 25.0124C83.7454 26.8733 81.0548 28.5327 78.2596 29.9424C79.9512 37.2488 78.1629 44.5552 73.4182 49.606C71.1224 52.0549 68.1337 53.8272 64.7746 54.7294C61.1496 55.7041 57.6051 55.5913 54.399 54.4072C55.5832 57.6213 55.704 61.1658 54.7293 64.7908C53.8271 68.1419 52.0549 71.1305 49.606 73.4344C44.5551 78.1791 37.2487 79.9675 29.9424 78.2758C28.5246 81.0791 26.8651 83.7616 25.0124 86.2669L22.0399 90.2705C22.2654 90.6088 22.491 90.9472 22.7085 91.2936C27.8721 99.4458 29.5074 109.507 27.1954 118.876C24.8835 128.253 18.7532 136.389 10.3915 141.206L4.00347 144.887C3.87459 144.96 3.72153 145 3.57653 145V144.992ZM4.43042 99.6955V142.664L9.5457 139.724C17.5126 135.14 23.3449 127.391 25.5521 118.465C27.7512 109.539 26.1965 99.9694 21.2826 92.2038C20.9685 91.7044 20.6382 91.2211 20.3079 90.7377C20.0985 90.4397 20.1065 90.0369 20.324 89.7389L23.659 85.2439C25.5924 82.6419 27.3001 79.8305 28.734 76.8983C28.9112 76.5358 29.3221 76.3425 29.7168 76.4472C36.6768 78.2597 43.6771 76.6647 48.454 72.1777C50.6693 70.0913 52.2724 67.3847 53.094 64.3397C54.1735 60.328 53.7787 56.4452 51.9501 53.0941C51.7729 52.7638 51.8293 52.353 52.0951 52.0791C52.361 51.8133 52.7718 51.7569 53.1101 51.9341C56.4532 53.7547 60.344 54.1494 64.3476 53.0699C67.3926 52.2483 70.1074 50.6452 72.1857 48.4299C76.6726 43.653 78.2676 36.6527 76.4551 29.6927C76.3504 29.298 76.5437 28.8871 76.9062 28.7099C79.8385 27.276 82.6418 25.5683 85.2518 23.6349L89.7468 20.2999C90.0448 20.0824 90.4476 20.0744 90.7457 20.2838C91.221 20.6221 91.7123 20.9444 92.2118 21.2585C99.9773 26.1724 109.547 27.7352 118.473 25.528C127.398 23.3288 135.148 17.4885 139.732 9.52963L142.672 4.41434H99.7035L90.8907 10.9474C90.5765 11.181 90.1415 11.1649 89.8435 10.9232C86.2265 7.95879 82.1343 4.59157 76.9143 3.17379C69.9543 1.28879 61.8907 3.35101 55.8651 8.57907L55.5993 8.81268C55.3657 9.02213 55.0354 9.07852 54.7454 8.97379C47.2618 6.26712 39.0532 5.22796 31.0137 5.97712C26.7524 6.37185 23.0226 8.70796 20.7832 12.3813C19.7118 14.1455 19.0674 16.0546 18.8579 18.0605C18.8176 18.4632 18.4954 18.7774 18.1007 18.8257C16.0949 19.0352 14.1857 19.6796 12.4215 20.751C8.74014 22.9824 6.41209 26.7121 6.01736 30.9816C5.27625 39.0291 6.31542 47.2297 9.01403 54.7133C9.11875 55.0113 9.05431 55.3416 8.84486 55.5752L8.65153 55.8008C3.39125 61.8666 1.32098 69.9302 3.21403 76.8902C4.63181 82.1102 7.99097 86.2105 10.9635 89.8194C11.2132 90.1255 11.2213 90.5525 10.9876 90.8666L4.45459 99.6794L4.43042 99.6955ZM12.1074 128.704C12.0026 128.704 11.906 128.688 11.8013 128.647C11.471 128.518 11.2535 128.204 11.2535 127.85V102.233C11.2535 102.048 11.3099 101.871 11.4226 101.726L14.8624 97.0855C15.0315 96.8519 15.3215 96.723 15.6035 96.7391C15.8935 96.7552 16.1512 96.9244 16.2963 97.1741C19.5749 103.127 20.5335 110.289 18.9224 116.822C17.8832 121.043 15.7404 125.054 12.7438 128.414C12.5826 128.599 12.349 128.696 12.1074 128.696V128.704ZM12.9613 102.515V125.457C14.9993 122.718 16.4735 119.633 17.271 116.419C18.6726 110.724 17.996 104.521 15.4263 99.1961L12.9693 102.515H12.9613ZM15.531 84.1563C15.2732 84.1563 15.0315 84.0355 14.8624 83.8341C12.4054 80.765 10.5929 78.1066 9.77931 75.1099C8.78847 71.4527 9.46514 67.1591 11.6321 63.3247C11.7771 63.0588 12.059 62.8977 12.3571 62.8897C12.6632 62.8816 12.9371 63.0347 13.0982 63.2924C15.6518 67.4008 18.7129 70.6794 22.201 73.0236C22.5554 73.2652 22.6762 73.7244 22.491 74.1111C21.2585 76.5841 19.8004 78.9605 18.1651 81.1677L16.2076 83.8019C16.0465 84.0113 15.8049 84.1402 15.539 84.1483H15.5229L15.531 84.1563ZM12.4618 65.4513C11.044 68.5447 10.6574 71.8313 11.4307 74.6669C12.0913 77.1077 13.5332 79.3633 15.5068 81.9008L16.7957 80.1608C18.2296 78.2275 19.5104 76.1652 20.6301 74.0144C17.561 71.8233 14.814 68.9474 12.4618 65.4513ZM35.4846 70.325C34.526 70.325 33.5351 70.2283 32.5282 70.043C32.2865 69.9947 32.0771 69.8497 31.9562 69.6483C31.8274 69.4388 31.8032 69.1891 31.8676 68.9555C33.5674 63.4294 34.381 57.6938 34.2924 51.918C34.2924 51.6924 34.381 51.4669 34.534 51.3058C34.6951 51.1447 34.9126 51.048 35.1382 51.048C36.4593 51.048 37.724 51.1849 38.8921 51.4588C41.8887 52.1516 44.4665 53.8835 45.7876 56.0908C46.9074 57.9597 47.141 60.1347 46.4885 62.5674C46.0051 64.3638 45.0385 66.0152 43.7657 67.2074C41.5826 69.2616 38.7068 70.325 35.4765 70.325H35.4846ZM33.7849 68.5125C36.1451 68.8025 39.754 68.6494 42.6057 65.9669C43.6529 64.9841 44.4504 63.6147 44.8532 62.1244C45.3849 60.1588 45.2076 58.4188 44.3376 56.9688C43.2501 55.1563 41.0751 53.7144 38.5215 53.1263C37.7321 52.941 36.8862 52.8283 36.0082 52.7799C36.0082 58.1127 35.259 63.3972 33.7849 68.5125ZM24.8996 66.3294C24.7062 66.3294 24.5129 66.2649 24.3518 66.1361C21.8062 64.0255 19.5829 61.1738 17.7221 57.6616C17.5207 57.283 17.6335 56.8077 17.9879 56.558C20.3885 54.8985 23.2079 53.5533 26.3737 52.5624C26.6315 52.4819 26.9215 52.5302 27.139 52.6913C27.3565 52.8524 27.4854 53.1102 27.4854 53.3841C27.4371 57.5488 26.841 61.6974 25.7212 65.7091C25.6407 65.9911 25.4312 66.2086 25.1574 66.2972C25.0768 66.3213 24.9882 66.3374 24.8996 66.3374V66.3294ZM19.599 57.5327C21.0087 60.0622 22.6279 62.2049 24.4324 63.9127C25.1896 60.8516 25.6326 57.718 25.7535 54.5602C23.4818 55.3577 21.4196 56.3566 19.6071 57.5327H19.599ZM15.2651 50.033C15.1604 50.033 15.0557 50.0169 14.959 49.9766C14.7093 49.8799 14.524 49.6705 14.4515 49.4208C12.8243 43.7335 12.2524 37.5871 12.8001 31.6341C12.9935 29.5396 14.1454 27.711 15.9579 26.6074C17.0293 25.9549 18.2376 25.6166 19.4701 25.6166H19.6796C20.0179 25.6327 20.316 25.8421 20.4368 26.1483L24.0215 34.9449C25.2782 38.0221 26.2046 41.2605 26.7846 44.5552C26.8571 44.9902 26.5912 45.4091 26.1643 45.5299C22.3218 46.553 18.8096 48.0272 15.7243 49.9122C15.5874 49.9927 15.4343 50.041 15.2812 50.041L15.2651 50.033ZM19.0674 27.3324C18.286 27.3969 17.5207 27.6466 16.836 28.0574C15.4907 28.8791 14.6368 30.2324 14.4918 31.7791C13.9924 37.1521 14.4435 42.6944 15.7968 47.8741C18.5679 46.2952 21.6371 45.0224 24.956 44.0799C24.3921 41.1638 23.5462 38.3121 22.4346 35.5813L19.0754 27.3244L19.0674 27.3324ZM46.126 46.988C45.981 46.988 45.836 46.9477 45.699 46.8752C44.0799 45.9488 42.3157 45.256 40.4387 44.821C38.5296 44.378 36.4835 44.1847 34.3729 44.241C33.9621 44.2572 33.5835 43.951 33.511 43.5322C32.8504 39.7058 31.779 35.9438 30.321 32.3671L29.6846 30.8044C29.5557 30.4902 29.6282 30.1196 29.8699 29.878C30.1115 29.6363 30.474 29.5638 30.7962 29.6927L32.359 30.3291C35.9357 31.7871 39.6896 32.8585 43.516 33.511C43.9349 33.5835 44.2329 33.9541 44.2249 34.373C44.1685 36.5238 44.3537 38.5055 44.8049 40.4388C45.2399 42.3158 45.9326 44.0799 46.859 45.6991C47.0524 46.0374 46.996 46.4563 46.7221 46.7302C46.561 46.8913 46.3435 46.9799 46.1179 46.9799L46.126 46.988ZM35.1221 42.5252C37.0957 42.5252 39.0129 42.7347 40.8254 43.1535C42.0096 43.4274 43.1535 43.798 44.249 44.2572C43.7899 43.1616 43.4193 42.0097 43.1454 40.8255C42.7265 38.9969 42.509 37.0635 42.5171 35.0658C38.9243 34.3971 35.404 33.3821 32.0287 32.0288C33.3821 35.4041 34.3971 38.9244 35.0657 42.5172H35.1221V42.5252ZM59.9815 46.8591C58.5637 46.8591 57.2668 46.5047 56.0826 45.7958C53.8754 44.4747 52.1435 41.8969 51.4507 38.9002C51.1768 37.7322 51.0399 36.4674 51.0399 35.1463C51.0399 34.9208 51.1285 34.6952 51.2976 34.5341C51.4587 34.373 51.6924 34.2844 51.9099 34.2924C57.6776 34.381 63.4212 33.5674 68.9473 31.8677C69.181 31.7952 69.4307 31.8274 69.6401 31.9563C69.8496 32.0852 69.9946 32.2866 70.0349 32.5283C70.8646 36.9508 69.8576 40.9463 67.1993 43.7738C65.999 45.0466 64.3557 46.0133 62.5593 46.5047C61.6651 46.7463 60.8032 46.8672 59.9815 46.8672V46.8591ZM52.7718 36.0083C52.8201 36.8863 52.9329 37.7321 53.1182 38.5216C53.7062 41.0752 55.1482 43.2502 56.9607 44.3377C58.4187 45.2077 60.1507 45.3849 62.1162 44.8533C63.6146 44.4505 64.976 43.653 65.9587 42.6058C68.6412 39.7541 68.7943 36.1452 68.5043 33.7849C63.381 35.2671 58.1046 36.0083 52.7799 36.0083H52.7637H52.7718ZM53.3679 27.4855C53.1021 27.4855 52.8443 27.3566 52.6832 27.1391C52.5221 26.9216 52.4737 26.6396 52.5543 26.3738C53.5451 23.208 54.8904 20.3885 56.5499 17.988C56.7996 17.6335 57.2668 17.5207 57.6535 17.7221C61.1657 19.583 64.0173 21.8063 66.1279 24.3519C66.3132 24.5774 66.3696 24.8755 66.289 25.1494C66.2004 25.4233 65.9829 25.6408 65.701 25.7133C61.6893 26.833 57.5407 27.421 53.376 27.4774H53.3679V27.4855ZM57.5246 19.5991C56.3485 21.4116 55.3496 23.4738 54.5521 25.7535C57.7099 25.6327 60.8435 25.1896 63.9046 24.4324C62.1968 22.636 60.054 21.0169 57.5246 19.5991ZM44.6921 26.7846C44.6437 26.7846 44.5954 26.7846 44.5471 26.7685C41.2524 26.1885 38.014 25.2621 34.9368 24.0055L26.1401 20.4207C25.826 20.2919 25.6165 19.9938 25.6085 19.6555C25.5682 18.3585 25.9065 17.0696 26.5993 15.9419C27.7029 14.1294 29.5315 12.9774 31.626 12.7841C37.579 12.2363 43.7254 12.8082 49.4126 14.4355C49.6704 14.508 49.8718 14.7013 49.9685 14.943C50.0651 15.1927 50.041 15.4666 49.904 15.7002C48.019 18.7855 46.5449 22.2977 45.5218 26.1402C45.4171 26.5188 45.0787 26.7766 44.7001 26.7766L44.6921 26.7846ZM27.3243 19.0755L35.5812 22.4346C38.3121 23.5463 41.1637 24.3921 44.0799 24.956C45.0224 21.6371 46.2951 18.568 47.874 15.7969C42.6943 14.4516 37.1521 14.0005 31.779 14.4919C30.2324 14.6369 28.871 15.4907 28.0574 16.836C27.6385 17.5288 27.3887 18.2941 27.3243 19.0755ZM73.7404 22.5796C73.4665 22.5796 73.1926 22.4427 73.0315 22.201C70.6793 18.713 67.4087 15.6519 63.3004 13.0982C63.0426 12.9371 62.8896 12.6552 62.8976 12.3571C62.8976 12.0591 63.0668 11.7771 63.3326 11.6321C67.1671 9.46518 71.4607 8.78851 75.1179 9.77935C78.1146 10.593 80.7729 12.3974 83.8421 14.8624C84.0515 15.0316 84.1643 15.2813 84.1643 15.5471C84.1643 15.813 84.0354 16.0627 83.8179 16.2157L81.1837 18.1732C78.9765 19.8166 76.6001 21.2666 74.1271 22.4991C74.0062 22.5555 73.8773 22.5877 73.7485 22.5877L73.7404 22.5796ZM65.4512 12.4619C68.9554 14.8141 71.8312 17.561 74.0143 20.6302C76.1571 19.5185 78.2273 18.2296 80.1607 16.7957L81.9007 15.5069C79.3632 13.5332 77.0996 12.0913 74.6668 11.4307C71.8393 10.6655 68.5446 11.0441 65.4512 12.4619ZM110.45 19.6877C105.85 19.6877 101.234 18.5277 97.1821 16.2963C96.9243 16.1594 96.7632 15.8935 96.7471 15.6035C96.731 15.3135 96.8598 15.0316 97.0935 14.8624L101.733 11.4227C101.878 11.3099 102.056 11.2535 102.241 11.2535H127.858C128.212 11.2535 128.526 11.471 128.655 11.8013C128.784 12.1316 128.687 12.5021 128.43 12.7438C125.07 15.7405 121.059 17.8832 116.838 18.9224C114.759 19.438 112.608 19.6877 110.458 19.6877H110.45ZM99.196 15.4182C104.521 17.996 110.723 18.6727 116.419 17.263C119.633 16.4655 122.718 14.9913 125.457 12.9532H102.515L99.196 15.4102V15.4182Z" fill="#1B1B1B"/>
<path d="M63.7438 13.2272C63.5747 13.2272 63.4055 13.1789 63.2605 13.0742C60.2155 10.9717 54.786 9.02224 54.7297 8.99807C54.2866 8.83696 54.053 8.35362 54.2141 7.91057C54.3752 7.46751 54.8585 7.2339 55.3016 7.39501C55.5352 7.47557 60.9969 9.44112 64.2272 11.6725C64.6138 11.9383 64.7105 12.47 64.4447 12.8567C64.2755 13.0983 64.0097 13.2272 63.7438 13.2272Z" fill="#1B1B1B"/>
<path d="M57.2507 19.3252C57.1057 19.3252 56.9527 19.285 56.8157 19.2044C54.1493 17.6175 48.9857 16.095 48.9374 16.0789C48.4863 15.95 48.2285 15.4747 48.3574 15.0236C48.4943 14.5725 48.9616 14.3147 49.4127 14.4436C49.6302 14.508 54.8341 16.0466 57.6857 17.7383C58.0885 17.98 58.2255 18.5036 57.9838 18.9064C57.8227 19.1722 57.5407 19.3252 57.2507 19.3252Z" fill="#1B1B1B"/>
<path d="M65.4756 25.7537C65.1051 25.7537 64.7667 25.5121 64.6539 25.1415C64.517 24.6904 64.7748 24.2151 65.2259 24.0782C65.2823 24.0621 70.5345 22.4993 73.3298 20.9768C73.7406 20.7512 74.2642 20.9043 74.4898 21.3151C74.7153 21.726 74.5623 22.2496 74.1514 22.4751C71.1951 24.0862 65.9428 25.649 65.7173 25.7135C65.6367 25.7376 65.5562 25.7457 65.4756 25.7457V25.7537Z" fill="#1B1B1B"/>
<path d="M69.2051 33.5353C68.8506 33.5353 68.5123 33.3098 68.3995 32.9473C68.2545 32.4962 68.4962 32.0209 68.9392 31.8678C68.9956 31.8517 74.2962 30.0876 76.874 28.7262C77.2928 28.5087 77.8084 28.6698 78.0259 29.0806C78.2434 29.4995 78.0823 30.0151 77.6715 30.2326C74.9648 31.6584 69.6965 33.4064 69.4709 33.4789C69.3823 33.5112 69.2937 33.5192 69.2051 33.5192V33.5353Z" fill="#1B1B1B"/>
<path d="M97.585 15.401C97.4641 15.401 97.3352 15.3769 97.2144 15.3205C94.54 14.0396 89.9966 10.0924 89.8033 9.93132C89.4489 9.6252 89.4086 9.08548 89.7227 8.73104C90.0289 8.37659 90.5686 8.33632 90.923 8.65048C90.9714 8.69076 95.4825 12.6138 97.9475 13.7899C98.3744 13.9913 98.5516 14.4988 98.3502 14.9258C98.2052 15.2319 97.8991 15.4091 97.5769 15.4091L97.585 15.401Z" fill="#1B1B1B"/>
<path d="M90.2465 21.8466C90.0934 21.8466 89.9323 21.8063 89.7873 21.7097C86.9679 19.9133 82.9079 16.3124 82.7387 16.1594C82.3843 15.8452 82.352 15.3055 82.6662 14.9591C82.9804 14.6047 83.5201 14.5805 83.8665 14.8866C83.9068 14.9269 87.9909 18.5519 90.6976 20.2758C91.0923 20.5255 91.2132 21.0572 90.9554 21.4519C90.7943 21.7097 90.5204 21.8466 90.2384 21.8466H90.2465Z" fill="#1B1B1B"/>
<path d="M51.9019 36.0004C51.9019 36.0004 51.8858 36.0004 51.8777 36.0004C51.4105 35.9842 51.0399 35.5976 51.048 35.1223C51.048 34.9129 51.2091 29.9667 52.5705 26.3256C52.7397 25.8826 53.231 25.6651 53.666 25.8262C54.1091 25.9954 54.3266 26.4867 54.1655 26.9217C52.9008 30.289 52.7477 35.1142 52.7477 35.1626C52.7316 35.6217 52.353 35.9923 51.8938 35.9923L51.9019 36.0004Z" fill="#1B1B1B"/>
<path d="M43.3793 35.2109C42.9121 35.2109 42.5254 34.8323 42.5254 34.3651C42.5254 34.1879 42.5254 29.9184 43.8787 25.6732C44.0237 25.222 44.499 24.9804 44.9501 25.1173C45.4012 25.2623 45.6429 25.7376 45.5059 26.1887C44.2332 30.1762 44.2332 34.3087 44.2332 34.349C44.2332 34.8162 43.8546 35.2029 43.3873 35.2029L43.3793 35.2109Z" fill="#1B1B1B"/>
<path d="M26.5751 53.5051C26.5751 53.5051 26.5912 53.5051 26.5993 53.5051C27.0665 53.5212 27.4612 53.1587 27.4854 52.6834C27.4854 52.474 27.6626 47.5279 26.5348 43.8062C26.3979 43.3551 25.9226 43.0973 25.4715 43.2343C25.0204 43.3712 24.7626 43.8465 24.8996 44.2976C25.9387 47.7373 25.7776 52.5626 25.7776 52.6109C25.7615 53.0701 26.1159 53.4648 26.5751 53.497V53.5051Z" fill="#1B1B1B"/>
<path d="M35.0979 52.9493C35.5651 52.9815 35.9679 52.627 36.0082 52.1598C36.0243 51.9826 36.3143 47.7293 35.2509 43.4034C35.1382 42.9443 34.679 42.6704 34.2198 42.7831C33.7607 42.8959 33.4868 43.3551 33.5996 43.8143C34.5984 47.8823 34.3165 51.9987 34.3165 52.039C34.2843 52.5062 34.6387 52.917 35.1059 52.9493H35.0979Z" fill="#1B1B1B"/>
<path d="M52.6916 53.5452C52.4741 53.5452 52.2566 53.4647 52.0874 53.2955L45.5221 46.7383C45.1918 46.408 45.1918 45.8683 45.5221 45.5299C45.8524 45.1997 46.3921 45.1997 46.7305 45.5299L53.2957 52.0872C53.626 52.4174 53.626 52.9572 53.2957 53.2955C53.1266 53.4647 52.9091 53.5452 52.6916 53.5452Z" fill="#1B1B1B"/>
<path d="M26.4623 20.4934C26.3657 20.4934 26.277 20.4773 26.1804 20.4451C24.5693 19.8812 19.9695 18.4876 18.157 18.8421C17.6898 18.9307 17.2468 18.6246 17.1582 18.1654C17.0695 17.7062 17.3676 17.2551 17.8348 17.1665C20.4368 16.6671 26.1079 18.6165 26.7443 18.834C27.1873 18.9871 27.4209 19.4784 27.2679 19.9215C27.147 20.2759 26.8168 20.4934 26.4623 20.4934Z" fill="#1B1B1B"/>
<path d="M30.482 31.3361C30.3531 31.3361 30.2162 31.3039 30.0873 31.2395C30.0148 31.1992 22.8695 27.5017 19.5909 27.3164C19.1237 27.2923 18.7612 26.8895 18.7853 26.4142C18.8095 25.947 19.2284 25.5764 19.6875 25.6086C23.3367 25.81 30.5706 29.5639 30.8767 29.717C31.2956 29.9345 31.4567 30.45 31.2392 30.8689C31.0862 31.1589 30.7881 31.3281 30.482 31.3281V31.3361Z" fill="#1B1B1B"/>
<path d="M8.20063 55.8734C8.02341 55.8734 7.83813 55.817 7.68507 55.6961C7.30646 55.4142 7.24202 54.8745 7.52396 54.5039C10.0534 51.185 14.6531 48.5509 14.8465 48.4381C15.2492 48.2045 15.7729 48.3495 16.0065 48.7603C16.2401 49.1711 16.0951 49.6867 15.6842 49.9203C15.6359 49.9445 11.1892 52.4981 8.86924 55.535C8.70007 55.7525 8.45035 55.8734 8.19257 55.8734H8.20063Z" fill="#1B1B1B"/>
<path d="M12.3735 64.6056C12.2123 64.6056 12.0432 64.5572 11.8982 64.4606C11.5035 64.1947 11.3987 63.6711 11.6646 63.2764C11.8015 63.075 14.9754 58.3625 18.0365 56.5259L20.9687 54.7697C21.3715 54.5281 21.8951 54.657 22.1368 55.0597C22.3785 55.4625 22.2496 55.9861 21.8468 56.2278L18.9146 57.9839C16.1837 59.6192 13.1146 64.1786 13.0823 64.2189C12.9212 64.4606 12.6473 64.5975 12.3735 64.5975V64.6056Z" fill="#1B1B1B"/>
<path d="M10.2868 91.2291C10.1096 91.2291 9.93234 91.1727 9.77929 91.0599C9.40067 90.778 9.32012 90.2463 9.60206 89.8677L14.8462 82.803C15.1282 82.4244 15.6598 82.3438 16.0384 82.6257C16.4171 82.9077 16.4976 83.4394 16.2157 83.818L10.9715 90.8827C10.8023 91.1082 10.5446 91.2291 10.2868 91.2291Z" fill="#1B1B1B"/>
<path d="M16.2317 98.1004L14.8623 97.0854L20.3079 89.7388C20.5898 89.3601 21.1215 89.2796 21.5001 89.5615C21.8787 89.8435 21.9592 90.3751 21.6773 90.7538L16.2317 98.1004Z" fill="#1B1B1B"/>
<path d="M29.4913 78.1307C29.4349 78.1307 29.3785 78.1307 29.3221 78.1146C26.5188 77.5507 21.5002 74.6023 21.2907 74.4815C20.888 74.2398 20.751 73.7162 20.9927 73.3135C21.2344 72.9107 21.758 72.7737 22.1608 73.0154C22.2091 73.0476 27.1391 75.9396 29.6605 76.4471C30.1196 76.5357 30.4177 76.9868 30.3291 77.454C30.2485 77.8568 29.8941 78.1387 29.4913 78.1387V78.1307Z" fill="#1B1B1B"/>
<path d="M32.6813 70.0592C32.6813 70.0592 32.6249 70.0592 32.6008 70.0592C29.6766 69.7773 24.6258 66.3295 24.4163 66.1845C24.0297 65.9186 23.933 65.387 24.1988 65.0003C24.4647 64.6136 24.9963 64.517 25.383 64.7828C26.7363 65.7092 30.7077 68.1742 32.7699 68.3675C33.2372 68.4159 33.5835 68.8267 33.5352 69.302C33.4949 69.745 33.1244 70.0753 32.6894 70.0753L32.6813 70.0592Z" fill="#1B1B1B"/>
<path d="M78.1632 22.2414C79.4602 21.5648 80.749 20.872 82.0218 20.1389C82.634 19.7845 83.2302 19.3978 83.8182 19.0112C84.1324 18.8017 84.4465 18.6003 84.7527 18.3828C85.0507 18.1734 85.4052 17.9801 85.5904 17.6578C85.7999 17.2953 85.4535 16.8684 85.0588 16.9651C84.7204 17.0456 84.4465 17.3195 84.1727 17.5209C83.8907 17.7384 83.6088 17.9478 83.3188 18.1653C82.7307 18.6003 82.1265 19.0273 81.5385 19.4542C80.3704 20.3001 79.1702 21.1137 77.9296 21.8548C77.6799 21.9998 77.8974 22.3703 78.1552 22.2414H78.1632Z" fill="#1B1B1B"/>
<path d="M82.3679 21.9595C83.0043 21.452 83.6729 21.0089 84.3818 20.6061C84.7282 20.4128 85.0827 20.2275 85.4371 20.0503C85.8077 19.8731 86.1943 19.72 86.5568 19.5267C86.7904 19.3978 86.8629 19.0675 86.7341 18.85C86.5891 18.6003 86.2991 18.56 86.0574 18.6728C85.6868 18.85 85.3485 19.0917 85.0102 19.3172C84.6557 19.5509 84.3174 19.8006 83.9791 20.0584C83.3185 20.5578 82.6741 21.0895 82.0538 21.6453C81.8363 21.8467 82.1504 22.1447 82.376 21.9675L82.3679 21.9595Z" fill="#1B1B1B"/>
<path d="M85.284 22.2011C85.8881 21.7903 86.5004 21.3955 87.1206 21.0089C87.4268 20.8155 87.7329 20.6303 88.0309 20.4369C88.184 20.3403 88.337 20.2436 88.482 20.1389C88.6834 19.9939 88.8123 19.8408 88.8768 19.5992C88.9331 19.3736 88.772 19.1722 88.5465 19.1642C88.1195 19.14 87.8215 19.4542 87.5154 19.7039C87.2334 19.9375 86.9515 20.1792 86.6695 20.4128C86.1137 20.888 85.5498 21.3472 84.9779 21.7983C84.7442 21.9836 85.0504 22.3783 85.3001 22.2092L85.284 22.2011Z" fill="#1B1B1B"/>
<path d="M95.1198 8.91752C94.6043 9.32835 94.0968 9.73113 93.5812 10.142C93.3396 10.3353 93.0898 10.5367 92.8321 10.7059C92.7032 10.7945 92.5582 10.8428 92.4293 10.9314C92.2521 11.0522 92.1393 11.2134 92.0184 11.3825C91.9298 11.5114 91.9701 11.7128 92.0748 11.8256C92.1957 11.9464 92.3648 11.9545 92.5179 11.882C92.6871 11.8014 92.8401 11.7209 92.9771 11.592C93.0898 11.4792 93.1623 11.3422 93.2751 11.2295C93.5007 10.9878 93.7504 10.7703 93.9921 10.5528C94.4754 10.1178 94.9587 9.6828 95.4421 9.2478C95.5307 9.16724 95.5226 9.01419 95.4421 8.92557C95.3454 8.82891 95.2165 8.85307 95.1198 8.92557V8.91752Z" fill="#1B1B1B"/>
<path d="M95.1523 10.1501C94.8059 10.4401 94.4595 10.7381 94.1131 11.0281C93.9439 11.1731 93.7667 11.3101 93.5895 11.4551C93.5009 11.5195 93.4203 11.592 93.3317 11.6565C93.2431 11.729 93.1786 11.8015 93.1464 11.9062C93.1222 11.9706 93.1223 12.0351 93.1303 12.0995C93.1303 12.1398 93.1384 12.172 93.1545 12.2042C93.1786 12.2687 93.1867 12.2687 93.1545 12.2042C93.1786 12.309 93.2673 12.3895 93.372 12.4217C93.3559 12.4217 93.3478 12.4137 93.3317 12.4056C93.3639 12.4217 93.3961 12.4298 93.4284 12.4459C93.5009 12.4701 93.5492 12.462 93.6217 12.4459C93.7506 12.4298 93.8392 12.3573 93.9278 12.2687C94.0003 12.1881 94.0809 12.1156 94.1534 12.0351C94.3145 11.874 94.4756 11.7048 94.6367 11.5437C94.9589 11.2295 95.2892 10.9153 95.6114 10.5931C95.7323 10.4723 95.7403 10.2467 95.6114 10.134C95.4745 10.0051 95.2892 10.0131 95.1523 10.134V10.1501Z" fill="#1B1B1B"/>
<path d="M96.0223 11.2938C95.8128 11.4791 95.6115 11.6724 95.402 11.8577C95.3053 11.9463 95.2006 12.0349 95.104 12.1316C94.9992 12.2283 94.8865 12.3169 94.7898 12.4216C94.6851 12.5344 94.6367 12.7277 94.7334 12.8646C94.7817 12.9291 94.7979 12.9533 94.8623 12.9935C94.9267 13.0419 95.0234 13.0499 95.0959 13.0338C95.1765 13.0258 95.2409 12.9935 95.3053 12.9291C95.4101 12.8324 95.4987 12.7277 95.5953 12.623C95.692 12.5183 95.7806 12.4135 95.8773 12.3169C96.0626 12.1074 96.2559 11.906 96.4412 11.7046C96.5459 11.5919 96.562 11.3985 96.4412 11.2858C96.3204 11.173 96.1431 11.173 96.0223 11.2858V11.2938Z" fill="#1B1B1B"/>
<path d="M99.3331 10.1822C98.7611 10.6575 98.1811 11.1166 97.6011 11.5838C97.3192 11.8094 97.0453 12.0511 96.7634 12.2927C96.4814 12.5344 96.1753 12.76 95.9014 13.0177C95.7 13.203 95.7161 13.5413 95.9014 13.7266C96.1028 13.928 96.4089 13.9038 96.6103 13.7266C96.8842 13.485 97.1259 13.2111 97.3836 12.9613C97.6495 12.6955 97.9233 12.4458 98.1811 12.1719C98.6967 11.6402 99.1961 11.1005 99.7197 10.585C99.9856 10.3272 99.5909 9.95662 99.317 10.1822H99.3331Z" fill="#1B1B1B"/>
<path d="M64.3399 19.6314C65.1213 20.2194 65.8221 20.9203 66.4827 21.6372C66.8049 21.9836 67.103 22.3541 67.393 22.7247C67.538 22.91 67.6749 23.1033 67.8119 23.2966C67.9891 23.5544 68.1502 23.78 68.4402 23.9008C68.6899 24.0055 68.9396 23.7478 68.9477 23.5141C68.9477 23.2161 68.7785 22.9744 68.6094 22.7489C68.4482 22.5314 68.2791 22.3139 68.1019 22.0964C67.7877 21.7097 67.4332 21.3391 67.0707 20.9928C66.3296 20.2758 65.4919 19.6878 64.6219 19.14C64.3157 18.9466 64.066 19.4058 64.3399 19.6153V19.6314Z" fill="#1B1B1B"/>
<path d="M67.9887 20.6464C68.3834 21.1217 68.7782 21.597 69.1648 22.0803C69.3582 22.322 69.5434 22.5556 69.7368 22.7972C69.8334 22.9181 69.9301 23.0389 70.0187 23.1517C70.1395 23.2967 70.2845 23.4739 70.4779 23.4981C70.7276 23.5303 70.9854 23.4014 70.9773 23.1195C70.9773 22.7489 70.6068 22.475 70.3651 22.2334C70.1476 22.0078 69.9301 21.7903 69.7126 21.5647C69.2776 21.1217 68.8507 20.6625 68.4237 20.2114C68.3109 20.0906 68.1015 20.0986 67.9887 20.2114C67.8598 20.3403 67.884 20.5175 67.9887 20.6464Z" fill="#1B1B1B"/>
<path d="M72.0489 39.2789C72.3792 38.0786 72.6048 36.8541 72.7095 35.6136C72.7578 34.9852 72.79 34.3569 72.7578 33.7286C72.7256 33.1566 72.7417 32.3994 72.4759 31.8919C72.3067 31.5616 71.6945 31.6019 71.6381 32.0047C71.5495 32.5605 71.7428 33.1727 71.7992 33.7286C71.8556 34.3327 71.912 34.9369 71.92 35.5491C71.9442 36.7575 71.8314 37.9658 71.5656 39.15C71.4931 39.4641 71.9684 39.6011 72.057 39.2869L72.0489 39.2789Z" fill="#1B1B1B"/>
<path d="M74.6106 36.4515C74.7798 35.6057 74.8765 34.7437 74.8926 33.8737C74.8926 33.4548 74.8926 33.044 74.8523 32.6251C74.812 32.1821 74.804 31.6826 74.6509 31.2637C74.5703 31.0462 74.377 30.8851 74.1353 30.9254C73.9178 30.9576 73.7084 31.1509 73.7245 31.3926C73.7487 31.8115 73.8695 32.2384 73.934 32.6573C73.9903 33.0601 74.0306 33.4709 74.0548 33.8737C74.1031 34.7034 74.079 35.5332 73.9742 36.3629C73.934 36.7254 74.5462 36.8059 74.6187 36.4515H74.6106Z" fill="#1B1B1B"/>
<path d="M76.1896 32.9471C76.1896 32.5121 76.1735 32.0691 76.1735 31.6341C76.1735 31.4166 76.1735 31.1991 76.1735 30.9735C76.1735 30.8446 76.1735 30.6996 76.1413 30.5708C76.0849 30.3774 75.8996 30.2163 75.6982 30.2163C75.4968 30.2163 75.3196 30.3774 75.2713 30.5708C75.231 30.7238 75.2713 30.893 75.2874 31.046C75.3196 31.2635 75.3438 31.473 75.376 31.6905C75.4324 32.1174 75.4888 32.5202 75.5451 32.9471C75.5693 33.1163 75.674 33.2694 75.8674 33.2694C76.0365 33.2694 76.1896 33.1244 76.1896 32.9471Z" fill="#1B1B1B"/>
<path d="M50.0574 23.6753C50.4441 22.475 50.9033 21.2908 51.4833 20.1711C51.7652 19.6233 52.0794 19.0917 52.4177 18.5761C52.5869 18.3183 52.7641 18.0686 52.9413 17.8108C53.1347 17.5289 53.3602 17.2953 53.3763 16.9408C53.3924 16.675 53.0783 16.4172 52.8205 16.5219C52.2566 16.7394 51.9102 17.545 51.6363 18.0525C51.3222 18.6244 51.0322 19.2206 50.7824 19.8247C50.2749 21.0411 49.8963 22.2736 49.703 23.5786C49.6708 23.8042 49.9849 23.9089 50.0574 23.6753Z" fill="#1B1B1B"/>
<path d="M53.4569 20.7591C53.9 20.1711 54.3511 19.583 54.7941 18.9869C55.2372 18.3989 55.7044 17.8269 56.0588 17.1744C56.2441 16.8361 55.785 16.4414 55.5111 16.7475C55.0036 17.3194 54.6088 17.9558 54.19 18.5922C53.7791 19.2125 53.3683 19.8408 52.9575 20.4611C52.8688 20.59 52.9333 20.7752 53.0622 20.8558C53.2072 20.9444 53.3602 20.88 53.4569 20.7511V20.7591Z" fill="#1B1B1B"/>
<path d="M64.5491 5.66312C63.4858 6.16257 62.4788 6.75868 61.5283 7.45951C61.0691 7.79784 60.626 8.14423 60.2071 8.52284C59.7802 8.90145 59.2485 9.32034 58.9585 9.81173C58.8135 10.0695 59.1277 10.4481 59.3935 10.2467C59.8446 9.91645 60.1991 9.43312 60.5938 9.04645C61.0046 8.65173 61.4235 8.26506 61.8666 7.90257C62.7527 7.16951 63.7113 6.51701 64.7183 5.95312C64.9116 5.84034 64.7424 5.56645 64.5491 5.66312Z" fill="#1B1B1B"/>
<path d="M63.1235 8.44222C62.3743 8.7725 61.7621 9.29611 61.2868 9.97278C61.158 10.15 60.9968 10.3917 61.0291 10.6172C61.0613 10.8428 61.3191 10.9878 61.5205 10.8589C61.6332 10.7864 61.6977 10.6656 61.7621 10.5447C61.8507 10.3756 61.9474 10.2144 62.0441 10.0614C62.0682 10.0211 62.1005 9.98083 62.1327 9.94055C62.1407 9.92444 62.1568 9.90833 62.1649 9.89222C62.2213 9.81166 62.1407 9.91639 62.181 9.87611C62.2374 9.80361 62.3018 9.72305 62.3663 9.65055C62.6643 9.32028 62.9785 9.08666 63.3652 8.87722C63.486 8.81278 63.5182 8.65166 63.4538 8.53889C63.3813 8.41 63.2363 8.39389 63.1155 8.45028L63.1235 8.44222Z" fill="#1B1B1B"/>
<path d="M33.068 27.9205C34.8322 28.7341 36.5883 29.58 38.3847 30.3291C39.2467 30.6916 40.1086 31.0622 40.9947 31.3522C41.8244 31.618 42.775 31.8839 43.653 31.763C44.0961 31.7066 44.08 30.9575 43.653 30.885C42.775 30.7319 41.9291 30.6675 41.0672 30.3936C40.2053 30.1197 39.3755 29.7572 38.5378 29.4269C36.7897 28.7422 35.0175 28.1461 33.2453 27.5097C33.0117 27.4291 32.8505 27.8077 33.0761 27.9125L33.068 27.9205Z" fill="#1B1B1B"/>
<path d="M37.3859 26.4867C38.3607 27.0908 39.3757 27.6305 40.4148 28.0978C40.9223 28.3233 41.4298 28.5247 41.9454 28.7422C42.2193 28.855 42.4851 28.9839 42.759 29.0886C43.0248 29.1933 43.339 29.3544 43.629 29.3142C44.0962 29.2578 44.2332 28.7503 43.8626 28.4603C43.629 28.283 43.2907 28.2589 43.0087 28.1944C42.759 28.138 42.5012 28.0897 42.2515 28.0253C41.7198 27.8883 41.1962 27.6869 40.6807 27.4855C39.6415 27.0747 38.6345 26.5753 37.6598 26.0194C37.3537 25.8422 37.0959 26.3014 37.3859 26.4867Z" fill="#1B1B1B"/>
<path d="M58.4512 28.8872C57.5328 28.9114 56.6064 28.9275 55.6881 28.9436C55.237 28.9436 54.7859 28.9597 54.3348 28.9678C53.8676 28.9839 53.3681 28.9517 52.9009 29.0483C52.6592 29.0967 52.5142 29.3625 52.5464 29.588C52.5867 29.8378 52.7801 29.9989 53.0298 30.015C53.4728 30.0472 53.9401 29.9505 54.3831 29.9103C54.8342 29.87 55.2853 29.8217 55.7364 29.7733C56.6387 29.6767 57.5409 29.58 58.4431 29.4994C58.8217 29.4672 58.8378 28.8792 58.4431 28.8953L58.4512 28.8872Z" fill="#1B1B1B"/>
<path d="M55.2207 30.5063C54.8099 30.5547 54.391 30.595 53.9802 30.6352C53.5371 30.6755 53.086 30.7077 52.651 30.7883C52.3852 30.8366 52.216 31.1669 52.2966 31.4166C52.3852 31.6986 52.6429 31.8275 52.9249 31.7711C53.3277 31.6986 53.7224 31.5697 54.1171 31.4569C54.5118 31.3441 54.9066 31.2394 55.3093 31.1347C55.4624 31.0944 55.5591 30.9413 55.5349 30.7883C55.5107 30.6513 55.3818 30.4983 55.2207 30.5144V30.5063Z" fill="#1B1B1B"/>
<path d="M58.2737 31.6423C57.2748 32.0209 56.2034 32.2465 55.1562 32.3995C54.6407 32.4801 54.1251 32.5365 53.6096 32.5687C53.3357 32.5848 53.0618 32.6009 52.7959 32.609C52.514 32.617 52.2159 32.5928 51.9501 32.6815C51.4507 32.8506 51.4265 33.5595 51.9501 33.7206C52.2401 33.8092 52.5543 33.769 52.8523 33.7448C53.1423 33.7287 53.4323 33.6884 53.7304 33.6562C54.2782 33.5837 54.8259 33.487 55.3657 33.3501C56.4612 33.0762 57.4843 32.6492 58.5234 32.1981C58.8457 32.0612 58.612 31.5053 58.2818 31.6342L58.2737 31.6423Z" fill="#1B1B1B"/>
<path d="M22.7169 27.3807C23.0149 28.6052 23.4499 29.7893 23.9413 30.9493C24.183 31.5213 24.4408 32.0771 24.7066 32.633C24.9724 33.1727 25.2141 33.8332 25.6491 34.2602C25.8666 34.4777 26.2372 34.2602 26.1647 33.9621C26.0197 33.3902 25.6169 32.8505 25.343 32.3349C25.061 31.8032 24.8033 31.2635 24.5535 30.7157C24.038 29.588 23.603 28.428 23.168 27.2599C23.0633 26.986 22.6444 27.0907 22.7169 27.3807Z" fill="#1B1B1B"/>
<path d="M25.4959 29.3383C25.939 30.74 26.3337 32.1577 26.7446 33.5675C26.9459 34.2602 27.1393 34.953 27.3487 35.6458C27.4534 36.0083 27.5662 36.3627 27.6709 36.7172C27.7676 37.0233 27.8159 37.3697 28.0737 37.5791C28.2268 37.708 28.4765 37.6758 28.5329 37.4583C28.6215 37.128 28.4846 36.838 28.3798 36.5238C28.259 36.1694 28.1462 35.815 28.0254 35.4605C27.7918 34.7758 27.5582 34.0911 27.3165 33.4063C26.8332 32.0127 26.3498 30.6272 25.8987 29.2175C25.8182 28.9597 25.4154 29.0725 25.4959 29.3302V29.3383Z" fill="#1B1B1B"/>
<path d="M27.9043 29.7007C28.1782 31.2796 28.5166 32.8424 28.9193 34.3971C29.1207 35.1705 29.3302 35.9438 29.5557 36.7091C29.6685 37.0957 29.7813 37.4743 29.9021 37.861C29.9988 38.1832 30.0632 38.5377 30.3371 38.7552C30.4741 38.868 30.7157 38.8438 30.7641 38.6424C30.8446 38.296 30.7077 37.998 30.5949 37.6677C30.466 37.2891 30.3452 36.9105 30.2163 36.5238C29.9746 35.7585 29.741 34.9932 29.5235 34.228C29.0885 32.6894 28.6938 31.1346 28.3313 29.5799C28.2668 29.298 27.856 29.4188 27.9043 29.7007Z" fill="#1B1B1B"/>
<path d="M8.57933 45.8442C8.71628 46.9236 8.95795 47.9789 9.33656 48.9939C9.52184 49.4934 9.72322 49.9847 9.95683 50.4681C10.0696 50.7017 10.1904 50.9353 10.3113 51.1689C10.4241 51.3864 10.5771 51.6522 10.851 51.6442C10.9235 51.6442 11.0041 51.6039 11.0443 51.5314C11.1571 51.3059 11.0604 51.1206 10.9316 50.9192C10.7946 50.6936 10.6496 50.4761 10.5127 50.2506C10.2468 49.7834 10.0052 49.3081 9.80378 48.8167C9.40906 47.842 9.11906 46.827 8.94989 45.7959C8.91767 45.5864 8.53906 45.6267 8.57128 45.8442H8.57933Z" fill="#1B1B1B"/>
<path d="M10.9315 48.2688C11.0604 48.728 11.1974 49.1871 11.3263 49.6544C11.3907 49.8799 11.4471 50.1055 11.5115 50.3391C11.576 50.5808 11.6163 50.8708 11.7854 51.056C11.8579 51.1366 11.9949 51.1527 12.0835 51.1124C12.1882 51.0641 12.2365 50.9755 12.2527 50.8627C12.2768 50.6291 12.1238 50.3552 12.0432 50.1377C11.9627 49.9202 11.8902 49.7108 11.8096 49.4933C11.6485 49.0502 11.4954 48.5991 11.3424 48.156C11.2538 47.8983 10.8429 48.003 10.9235 48.2688H10.9315Z" fill="#1B1B1B"/>
<path d="M28.9035 63.4133C28.5571 63.9369 28.2832 64.5008 28.0818 65.0889C27.9771 65.3789 27.8966 65.6769 27.8402 65.983C27.7757 66.3052 27.7113 66.6275 27.7757 66.9497C27.8241 67.2397 28.251 67.1994 28.3315 66.9497C28.4202 66.6758 28.4121 66.3777 28.4604 66.0877C28.5088 65.7977 28.5652 65.5158 28.6457 65.2339C28.8068 64.678 29.0404 64.1464 29.3385 63.655C29.4996 63.3811 29.0888 63.1475 28.9196 63.4133H28.9035Z" fill="#1B1B1B"/>
<path d="M30.3694 64.7104C30.1599 65.1534 29.9585 65.5884 29.7491 66.0234C29.6444 66.2409 29.5396 66.4584 29.4349 66.6759L29.2738 67.0062C29.2174 67.127 29.1852 67.2398 29.161 67.3687C29.1127 67.6426 29.443 67.7795 29.596 67.554C29.6766 67.4412 29.733 67.3445 29.7813 67.2156C29.8216 67.1029 29.8619 66.9901 29.9021 66.8773C29.9827 66.6517 30.0633 66.4181 30.1519 66.1926C30.313 65.7334 30.4902 65.2823 30.6594 64.8312C30.7238 64.6701 30.4499 64.5492 30.3694 64.7104Z" fill="#1B1B1B"/>
<path d="M21.9756 79.9353C22.4992 79.2828 23.0389 78.6383 23.5786 77.9939C23.8525 77.6716 24.1103 77.3494 24.3842 77.0272C24.5211 76.8661 24.65 76.705 24.7869 76.5439C24.9239 76.3747 25.0769 76.2216 25.1736 76.0203C25.3508 75.6416 24.9319 75.3275 24.6097 75.5853C24.4406 75.7222 24.3197 75.9075 24.1908 76.0766C24.0619 76.2458 23.9411 76.415 23.8122 76.5761C23.5706 76.8983 23.3208 77.2205 23.0792 77.5508C22.5878 78.2194 22.0883 78.88 21.5808 79.5325C21.4842 79.6533 21.46 79.8144 21.5808 79.9353C21.6775 80.04 21.8869 80.0561 21.9836 79.9353H21.9756Z" fill="#1B1B1B"/>
<path d="M25.1658 78.3001C25.4477 77.8892 25.7216 77.4864 26.0116 77.0837C26.1566 76.8823 26.3016 76.6809 26.4385 76.4795C26.503 76.3828 26.5755 76.2942 26.6399 76.1976C26.7124 76.0928 26.8091 75.9881 26.8574 75.8673C26.9219 75.7223 26.9138 75.5531 26.7769 75.4484C26.648 75.3517 26.4627 75.3517 26.3499 75.4726C26.1727 75.6498 26.0599 75.9076 25.923 76.117C25.786 76.3345 25.6491 76.552 25.5202 76.7695C25.2544 77.1964 24.9805 77.6153 24.7066 78.0342C24.626 78.1551 24.6824 78.3242 24.8033 78.3967C24.9321 78.4692 25.0852 78.4209 25.1658 78.3001Z" fill="#1B1B1B"/>
<path d="M8.14421 84.5509C8.69198 85.3404 9.2881 86.0976 9.9406 86.7984C10.2548 87.1448 10.585 87.4751 10.9314 87.7973C11.1087 87.9665 11.2939 88.1276 11.4792 88.2887C11.6645 88.4498 11.8578 88.6432 12.1075 88.6915C12.3573 88.7398 12.5184 88.5062 12.4217 88.2887C12.325 88.0712 12.1156 87.9343 11.9384 87.7893C11.7612 87.6362 11.5759 87.4912 11.4067 87.3301C11.0684 87.024 10.7381 86.7098 10.4159 86.3876C9.77143 85.7271 9.16726 85.0262 8.61948 84.2851C8.4181 84.0112 7.95893 84.269 8.16032 84.5509H8.14421Z" fill="#1B1B1B"/>
<path d="M10.7945 83.7213C11.0845 84.2529 11.4389 84.7443 11.8336 85.1954C12.2203 85.6466 12.6714 86.1057 13.195 86.3957C13.4609 86.5407 13.7831 86.1702 13.5334 85.9527C13.0984 85.5741 12.6311 85.2518 12.2203 84.841C11.8175 84.4382 11.4711 83.9791 11.1811 83.4957C11.0281 83.2541 10.6575 83.4716 10.7945 83.7213Z" fill="#1B1B1B"/>
<path d="M12.2446 83.1896C12.583 83.5924 12.9133 84.0033 13.2596 84.398C13.4288 84.5913 13.598 84.7846 13.7671 84.986C13.9524 85.2035 14.1377 85.3969 14.4116 85.4935C14.5727 85.5499 14.7258 85.3727 14.6855 85.2196C14.6049 84.9538 14.4196 84.7524 14.2183 84.5591C14.0249 84.3738 13.8396 84.1885 13.6463 84.0033C13.2758 83.6327 12.8891 83.2783 12.5024 82.9238C12.3252 82.7546 12.0835 83.0044 12.2366 83.1896H12.2446Z" fill="#1B1B1B"/>
<path d="M21.1214 100.179C20.5012 99.2366 19.897 98.2941 19.2928 97.3435C19.0028 96.8843 18.7128 96.4252 18.4148 95.966C18.1167 95.4907 17.8428 94.9591 17.4723 94.5321C17.2064 94.226 16.7795 94.6127 16.9406 94.9429C17.1823 95.4182 17.5609 95.8532 17.867 96.2882C18.1892 96.7474 18.5195 97.2066 18.8417 97.6738C19.4781 98.5841 20.1064 99.4943 20.7348 100.413C20.8959 100.646 21.2826 100.429 21.1214 100.187V100.179Z" fill="#1B1B1B"/>
<path d="M21.0976 96.3606C20.8801 95.7403 20.6626 95.112 20.437 94.4917C20.3323 94.2017 20.2276 93.9117 20.1309 93.6217C20.0423 93.3639 19.9457 92.7839 19.5509 92.8967C19.132 93.0095 19.4301 93.5492 19.5268 93.7909C19.6476 94.0809 19.7523 94.3628 19.8732 94.6528C20.1229 95.265 20.3645 95.8853 20.6143 96.4975C20.727 96.7875 21.2023 96.6748 21.0976 96.3686V96.3606Z" fill="#1B1B1B"/>
<path d="M21.6854 93.074C21.347 92.5826 21.0167 92.0912 20.7026 91.5918C20.6059 91.4307 20.477 91.2615 20.2676 91.2696C19.9776 91.2776 19.9856 91.6562 20.1226 91.8254C20.2998 92.059 20.4931 92.2765 20.6704 92.5101C20.8717 92.784 21.0731 93.0498 21.2745 93.3237C21.3551 93.4284 21.484 93.4848 21.6048 93.4123C21.7095 93.3479 21.7659 93.1868 21.6934 93.0821L21.6854 93.074Z" fill="#1B1B1B"/>
</g>
<defs>
<clipPath id="clip0_180_1633">
<rect width="145" height="145" fill="white"/>
</clipPath>
</defs>
</svg>
